<?xml version="1.0" encoding="utf-8"?>
<!-- Generator: Adobe Illustrator 16.0.0, SVG Export Plug-In . SVG Version: 6.00 Build 0)  -->
<!DOCTYPE svg PUBLIC "-//W3C//DTD SVG 1.1//EN" "http://www.w3.org/Graphics/SVG/1.1/DTD/svg11.dtd">
<svg version="1.1" id="Calque_3" xmlns="http://www.w3.org/2000/svg" xmlns:xlink="http://www.w3.org/1999/xlink" x="0px" y="0px"
	 width="425.978px" height="123.204px" viewBox="3.094 4.763 425.978 123.204" enable-background="new 3.094 4.763 425.978 123.204"
	 xml:space="preserve">
<g>
	<path d="M287.21,92.085c-4.205,0-7.784,0.063-11.358-0.05c-0.742-0.024-1.641-0.547-2.172-1.11
		c-10.271-10.906-20.494-21.855-30.737-32.789c-0.625-0.666-1.345-1.248-2.019-1.867c-0.195,0.064-0.394,0.13-0.592,0.193
		c0,23.813,0,47.623,0,71.504c-3.093,0-5.768,0-8.564,0c0-35.463,0-70.82,0-106.324c2.746,0,5.414,0,8.457,0
		c0,10.098,0,20.189,0,30.281c0.203,0.094,0.406,0.183,0.608,0.275c1.525-1.396,3.071-2.768,4.569-4.189
		c8.904-8.449,17.797-16.918,26.719-25.351c0.543-0.513,1.312-1.086,1.989-1.108c3.567-0.109,7.141-0.051,11.008,0.391
		c-11.42,10.553-22.842,21.105-34.431,31.812C262.787,66.452,274.805,79.068,287.21,92.085z"/>
	<path d="M429.071,92.087c-3.055,0-5.764,0.098-8.456-0.066c-0.702-0.041-1.691-0.744-1.979-1.395
		c-2.054-4.677-4.007-9.398-5.892-14.146c-0.487-1.225-1.153-1.598-2.438-1.594c-10.526,0.051-21.057,0.059-31.584-0.004
		c-1.426-0.01-2.014,0.518-2.521,1.776c-1.882,4.668-3.934,9.271-5.833,13.933c-0.45,1.104-0.971,1.58-2.219,1.528
		c-2.553-0.108-5.112-0.032-7.896-0.032c0.209-0.646,0.33-1.17,0.545-1.656c9.836-22.383,19.699-44.758,29.489-67.164
		c0.631-1.444,1.366-1.885,2.892-1.866c6.007,0.069,5.992,0.022,8.332,5.536c8.836,20.828,17.682,41.652,26.518,62.479
		C428.362,90.212,428.655,91.023,429.071,92.087z M395.058,32.19c-5.021,11.849-9.843,23.239-14.729,34.774
		c9.584,0,18.884,0,28.451,0C404.22,55.404,399.729,44.028,395.058,32.19z"/>
	<path d="M123.232,51.163c0-9.94,0-19.716,0-29.608c2.755,0,5.36,0,8.133,0c0,23.4,0,46.826,0,70.395c-2.632,0-5.289,0-8.11,0
		c0-10.859,0-21.654,0-32.611c-12.62,0-25.076,0-37.698,0c0,10.797,0,21.594,0,32.568c-2.814,0-5.471,0-8.284,0
		c0-23.363,0-46.792,0-70.344c2.625,0,5.229,0,8.069,0c0,9.775,0,19.605,0,29.601C98.026,51.163,110.478,51.163,123.232,51.163z"/>
	<path d="M296.649,21.531c2.719,0,5.322,0,8.158,0c0,9.873,0,19.699,0,29.666c12.632,0,25.03,0,37.661,0c0-9.771,0-19.602,0-29.594
		c2.88,0,5.537,0,8.332,0c0,23.414,0,46.842,0,70.377c-2.674,0-5.275,0-8.125,0c0-10.85,0-21.693,0-32.672
		c-12.646,0-25.05,0-37.694,0c0,10.783,0,21.633,0,32.629c-2.896,0-5.551,0-8.332,0C296.649,68.531,296.649,45.156,296.649,21.531z"
		/>
	<path d="M149.167,91.931c0-23.535,0-46.914,0-70.441c14.724,0,29.365,0,44.124,0c0,2.529,0,4.988,0,7.708
		c-11.862,0-23.732,0-35.735,0c0,7.453,0,14.649,0,22.048c11.035,0,22.041,0,33.265,0c0,2.686,0,5.18,0,7.84
		c-11.013,0-22.026,0-33.218,0c0,8.375,0,16.59,0,25.073c12.374,0,24.823,0,37.414,0c0,2.714,0,5.16,0,7.771
		C179.818,91.931,164.585,91.931,149.167,91.931z"/>
	<path d="M59.506,76.142c2.102,1.77,4.151,3.49,6.312,5.309c-4.439,6.094-10.278,9.787-17.428,11.461
		C22.931,98.871,0.713,79.398,3.298,53.378c1.5-15.119,8.756-26.314,23.291-31.56c11.379-4.106,22.585-3.126,32.724,4.179
		c1.234,0.889,2.28,2.047,3.375,3.12c0.457,0.448,0.812,0.999,1.334,1.657c-2.436,1.775-4.773,3.48-7.053,5.146
		c-0.253-0.068-0.446-0.061-0.514-0.146c-8.73-11.242-26.794-11.066-37.016,0.968C9.495,48.449,9.938,67.61,20.49,78.265
		c10.385,10.486,26.998,10.377,37.254-0.246C58.293,77.447,58.833,76.861,59.506,76.142z"/>
	<path d="M216.512,91.989c-2.75,0-5.354,0-8.069,0c0-23.461,0-46.825,0-70.371c2.599,0,5.254,0,8.069,0
		C216.512,44.97,216.512,68.386,216.512,91.989z"/>
	<path d="M222.317,4.763c3.198-0.014,5.522,2.309,5.483,5.485c-0.035,3.018-2.418,5.33-5.475,5.311
		c-3.082-0.018-5.312-2.282-5.323-5.402C216.993,7.071,219.253,4.778,222.317,4.763z"/>
	<path d="M197.263,10.202c-0.024-3.126,2.218-5.422,5.313-5.438c3.136-0.016,5.414,2.209,5.457,5.33
		c0.047,3.074-2.266,5.435-5.35,5.468C199.57,15.593,197.291,13.341,197.263,10.202z"/>
	<path fill="none" d="M395.058,32.19c4.672,11.838,9.161,23.214,13.725,34.774c-9.567,0-18.867,0-28.451,0
		C385.217,55.427,390.039,44.039,395.058,32.19z"/>
</g>
</svg>
