<?xml version="1.0" encoding="utf-8"?>
<!-- Generator: Adobe Illustrator 16.0.0, SVG Export Plug-In . SVG Version: 6.00 Build 0)  -->
<!DOCTYPE svg PUBLIC "-//W3C//DTD SVG 1.1//EN" "http://www.w3.org/Graphics/SVG/1.1/DTD/svg11.dtd">
<svg version="1.1" id="Calque_3" xmlns="http://www.w3.org/2000/svg" xmlns:xlink="http://www.w3.org/1999/xlink" x="0px" y="0px"
	 width="444.012px" height="77.649px" viewBox="1.997 80.686 444.012 77.649" enable-background="new 1.997 80.686 444.012 77.649"
	 xml:space="preserve">
<g>
	<path d="M1.997,155.932c2.015-3.432,4.035-6.857,6.044-10.293c12.308-21.021,24.613-42.045,36.91-63.073
		c0.195-0.334,0.404-0.444,0.778-0.436c1.125,0.025,2.25,0.008,3.414,0.008c0,22.022,0,43.985,0,65.947
		c0.036,0.017,0.071,0.032,0.106,0.05c0.083-0.132,0.171-0.258,0.248-0.392c5.666-9.931,11.329-19.86,16.993-29.793
		c6.731-11.802,13.461-23.603,20.184-35.412c0.167-0.293,0.342-0.417,0.689-0.409c1.146,0.023,2.292,0.008,3.503,0.008
		c0,24.584,0,49.13,0,73.677c0.034,0.01,0.069,0.021,0.104,0.027c0.081-0.119,0.168-0.234,0.24-0.359
		c7.695-13.353,15.389-26.707,23.082-40.062c6.297-10.929,12.597-21.857,18.882-32.793c0.222-0.384,0.463-0.517,0.901-0.503
		c1.091,0.034,2.185,0.011,3.312,0.011c0,24.649,0,49.25,0,73.878c-1.293,0-2.557,0-3.88,0c0-8.316,0-16.637,0-25.035
		c-0.241,0-0.424,0-0.607,0c-7.461,0-14.923,0.004-22.385-0.009c-0.4,0-0.61,0.119-0.811,0.468
		c-4.646,8.07-9.307,16.135-13.961,24.199c-0.134,0.235-0.248,0.414-0.58,0.412c-2.643-0.016-5.286-0.009-7.928-0.011
		c-0.084,0-0.168-0.013-0.292-0.021c0-21.76,0-43.493,0-65.228c-0.037-0.017-0.074-0.034-0.11-0.051
		c-0.082,0.132-0.169,0.26-0.246,0.394c-5.686,9.858-11.371,19.717-17.056,29.575c-6.699,11.621-13.399,23.241-20.089,34.866
		c-0.196,0.34-0.397,0.49-0.81,0.478c-1.111-0.034-2.223-0.012-3.392-0.012c0-21.759,0-43.491,0-65.222
		c-0.042-0.017-0.082-0.033-0.123-0.049c-0.085,0.131-0.176,0.256-0.255,0.391c-11.3,19.177-22.598,38.354-33.897,57.529
		c-1.366,2.321-2.736,4.641-4.095,6.966c-0.154,0.265-0.316,0.399-0.647,0.395c-1.408-0.021-2.817-0.014-4.226-0.018
		C1.997,156,1.997,155.965,1.997,155.932z M133.448,127.003c0-12.254,0-24.459,0-36.784c-7.087,12.314-14.115,24.522-21.17,36.784
		C119.391,127.003,126.396,127.003,133.448,127.003z"/>
	<path d="M227.206,158.331c-0.806-0.097-1.612-0.188-2.417-0.292c-7.375-0.943-13.96-3.752-19.69-8.48
		c-7.392-6.101-12.092-13.88-13.63-23.339c-2.178-13.392,1.588-25.033,11.231-34.604c6.098-6.054,13.553-9.529,22.089-10.641
		c0.805-0.104,1.611-0.192,2.417-0.289c1.67,0,3.34,0,5.01,0c0.132,0.029,0.261,0.075,0.396,0.084
		c4.58,0.331,8.981,1.406,13.133,3.365c2.08,0.981,4.07,2.16,6.18,3.295c0.102-0.068,0.332-0.221,0.566-0.374
		c5.014-3.286,10.49-5.336,16.447-6.079c0.805-0.101,1.608-0.194,2.414-0.291c1.67,0,3.34,0,5.01,0
		c0.807,0.096,1.61,0.186,2.416,0.289c7.242,0.927,13.713,3.687,19.412,8.244c3.803,3.042,6.905,6.691,9.348,10.903
		c0.07,0.12,0.137,0.242,0.199,0.366c0.016,0.028,0.016,0.065,0.026,0.127c-0.057,0.021-0.116,0.064-0.176,0.064
		c-1.408,0.006-2.817,0.023-4.226-0.012c-0.192-0.005-0.432-0.247-0.561-0.44c-2.584-3.842-5.785-7.066-9.637-9.634
		c-5.066-3.374-10.633-5.312-16.705-5.75c-7.457-0.535-14.387,1.142-20.775,5.022c-0.145,0.088-0.281,0.19-0.473,0.323
		c3.418,3.014,6.236,6.451,8.486,10.5c-0.816,0-1.523,0-2.229,0c-0.661,0-1.323-0.023-1.983,0.009
		c-0.396,0.021-0.623-0.117-0.842-0.447c-1.791-2.718-3.945-5.116-6.421-7.229c-0.129-0.112-0.266-0.221-0.395-0.326
		c-16.302,12.777-17.607,39.233-0.009,53.664c0.693-0.629,1.414-1.25,2.097-1.91c2.313-2.236,4.272-4.751,5.896-7.531
		c0.096-0.163,0.327-0.343,0.502-0.347c1.354-0.027,2.713-0.013,4.067-0.009c0.047,0,0.095,0.028,0.207,0.067
		c-2.312,4.687-5.428,8.72-9.36,12.183c0.137,0.105,0.235,0.195,0.346,0.264c4.463,2.75,9.289,4.467,14.512,4.977
		c10.6,1.035,19.828-2.089,27.66-9.294c2.445-2.25,4.473-4.854,6.139-7.733c0.197-0.344,0.4-0.491,0.809-0.48
		c1.322,0.029,2.642,0.011,4.062,0.011c-0.106,0.245-0.176,0.431-0.268,0.604c-5.83,10.896-14.753,17.745-26.833,20.403
		c-1.604,0.354-3.266,0.459-4.897,0.684c-0.133,0.018-0.266,0.057-0.396,0.088c-1.67,0-3.34,0-5.01,0
		c-0.131-0.031-0.262-0.076-0.395-0.087c-4.58-0.328-8.98-1.406-13.133-3.363c-2.082-0.981-4.068-2.163-6.101-3.251
		c0.027-0.099-0.008-0.09-0.036-0.07c-0.132,0.084-0.261,0.172-0.39,0.258c-5.073,3.365-10.621,5.467-16.67,6.224
		c-0.801,0.101-1.606,0.194-2.412,0.291C230.546,158.331,228.876,158.331,227.206,158.331z M248.312,148.85
		c-8.623-7.923-13.273-17.63-13.267-29.366c0.006-11.73,4.666-21.435,13.269-29.317c-13.033-8.482-32.255-7.452-44.49,6.14
		c-11.773,13.077-11.928,33.044-0.077,46.31C215.856,156.174,235.064,157.427,248.312,148.85z"/>
	<path fill="none" d="M232.216,158.331c0.806-0.097,1.611-0.19,2.412-0.291c6.049-0.757,11.597-2.856,16.67-6.224
		c0.129-0.086,0.259-0.174,0.39-0.258c0.028-0.02,0.063-0.027,0.037,0.07c2.03,1.088,4.018,2.27,6.1,3.251
		c4.152,1.957,8.553,3.035,13.133,3.363c0.133,0.011,0.264,0.056,0.395,0.087C258.307,158.331,245.261,158.331,232.216,158.331z"/>
	<path fill="none" d="M271.352,80.686c-0.806,0.097-1.609,0.19-2.414,0.291c-5.957,0.743-11.435,2.793-16.447,6.079
		c-0.234,0.153-0.465,0.306-0.566,0.374c-2.109-1.135-4.1-2.313-6.18-3.295c-4.15-1.959-8.553-3.035-13.133-3.365
		c-0.135-0.009-0.264-0.055-0.396-0.084C245.261,80.686,258.307,80.686,271.352,80.686z"/>
	<path d="M442.075,149.673c0-22.483,0-44.968,0-67.493c1.315,0,2.606,0,3.934,0c0,24.604,0,49.203,0,73.861
		c-1.27,0-2.514,0.014-3.76-0.016c-0.164-0.004-0.353-0.198-0.479-0.347c-3.074-3.547-6.142-7.1-9.209-10.651
		c-7.837-9.061-15.671-18.122-23.505-27.184c-8.562-9.904-17.125-19.809-25.684-29.711c-0.121-0.137-0.248-0.268-0.478-0.513
		c0,22.878,0,45.614,0,68.387c-1.329,0-2.59,0-3.903,0c0-24.59,0-49.189,0-73.869c0.569,0,1.17-0.004,1.771,0.001
		c0.711,0.006,1.515-0.184,2.107,0.086c0.594,0.271,0.979,0.999,1.449,1.532c7.621,8.717,15.242,17.434,22.86,26.151
		c10.228,11.705,20.453,23.41,30.679,35.113c1.268,1.453,2.539,2.907,3.811,4.358c0.1,0.116,0.199,0.232,0.301,0.347
		C442.005,149.711,442.04,149.691,442.075,149.673z"/>
	<path d="M346.979,82.138c0,24.646,0,49.233,0,73.862c-1.298,0-2.587,0-3.938,0c0-8.322,0-16.643,0-25.02c-0.242,0-0.428,0-0.613,0
		c-7.444,0-14.891,0.006-22.334-0.011c-0.434,0-0.641,0.159-0.842,0.509c-4.631,8.039-9.274,16.07-13.901,24.111
		c-0.203,0.354-0.421,0.471-0.818,0.463c-1.318-0.025-2.639-0.011-4.033-0.011c0.094-0.188,0.156-0.327,0.229-0.455
		c13.98-24.266,27.964-48.532,41.929-72.807c0.28-0.483,0.561-0.688,1.129-0.658C344.835,82.176,345.895,82.138,346.979,82.138z
		 M343.013,90.408c-0.026-0.009-0.059-0.017-0.088-0.025c-7.014,12.189-14.03,24.375-21.067,36.604c7.1,0,14.114,0,21.155,0
		C343.013,114.773,343.013,102.59,343.013,90.408z"/>
	<path d="M361.526,82.159c1.303,0,2.567,0,3.877,0c0,24.606,0,49.202,0,73.884c-0.652,0-1.285,0-1.923,0c-0.639,0-1.278,0-1.954,0
		C361.526,131.405,361.526,106.807,361.526,82.159z"/>
	<path d="M160.276,117.809c0.277,0,0.479,0.002,0.68,0c2.086-0.02,4.181,0.077,6.255-0.085c4.799-0.375,8.56-2.668,11.343-6.557
		c1.961-2.739,2.912-5.845,2.896-9.198c-0.04-8.022-5.61-14.215-12.499-15.579c-0.965-0.19-1.965-0.287-2.949-0.299
		c-3.304-0.036-6.609-0.014-9.913-0.012c-0.137,0-0.272,0.019-0.464,0.033c0,23.295,0,46.574,0,69.892c-1.347,0-2.638,0-3.956,0
		c0-24.613,0-49.213,0-73.844c0.124-0.008,0.224-0.021,0.324-0.021c4.834,0.004,9.671-0.059,14.503,0.031
		c4.88,0.092,9.107,1.917,12.64,5.273c3.57,3.391,5.6,7.58,6.091,12.466c1.038,10.312-5.701,19.319-15.118,21.411
		c-0.994,0.222-2.011,0.33-3.096,0.506c6.289,11.379,12.574,22.753,18.91,34.217c-1.032,0-1.99-0.094-2.921,0.023
		c-1.227,0.154-1.831-0.324-2.422-1.403c-6.633-12.112-13.33-24.188-20.009-36.278C160.48,118.224,160.402,118.056,160.276,117.809z
		"/>
	<path fill="none" d="M133.448,127.003c-7.052,0-14.058,0-21.17,0c7.056-12.261,14.083-24.469,21.17-36.784
		C133.448,102.544,133.448,114.749,133.448,127.003z"/>
	<path fill="none" d="M248.312,148.85c-13.246,8.577-32.457,7.324-44.565-6.231c-11.851-13.267-11.697-33.233,0.077-46.31
		c12.235-13.592,31.457-14.623,44.49-6.14c-8.603,7.882-13.263,17.587-13.269,29.317C235.038,131.22,239.688,140.927,248.312,148.85
		z"/>
	<path fill="none" d="M343.013,90.408c0,12.182,0,24.366,0,36.578c-7.041,0-14.057,0-21.155,0
		c7.037-12.229,14.055-24.414,21.067-36.604C342.954,90.391,342.985,90.399,343.013,90.408z"/>
</g>
</svg>
