<?xml version="1.0" encoding="utf-8"?>
<!-- Generator: Adobe Illustrator 16.0.0, SVG Export Plug-In . SVG Version: 6.00 Build 0)  -->
<!DOCTYPE svg PUBLIC "-//W3C//DTD SVG 1.1//EN" "http://www.w3.org/Graphics/SVG/1.1/DTD/svg11.dtd">
<svg version="1.1" id="Calque_3" xmlns="http://www.w3.org/2000/svg" xmlns:xlink="http://www.w3.org/1999/xlink" x="0px" y="0px"
	 width="443.536px" height="49.856px" viewBox="3.735 91.794 443.536 49.856" enable-background="new 3.735 91.794 443.536 49.856"
	 xml:space="preserve">
<g>
	<path d="M3.739,129.835l4.688-0.644c0.125,3,0.688,5.056,1.688,6.162s2.384,1.66,4.152,1.66c1.303,0,2.428-0.299,3.375-0.896
		c0.946-0.598,1.598-1.41,1.956-2.438c0.357-1.026,0.536-2.666,0.536-4.916v-27.057h5.197v26.762c0,3.286-0.398,5.831-1.192,7.636
		c-0.795,1.805-2.054,3.18-3.777,4.125c-1.723,0.946-3.746,1.42-6.067,1.42c-3.447,0-6.086-0.99-7.917-2.974
		C4.546,136.693,3.667,133.746,3.739,129.835z"/>
	<path d="M31.243,121.852c0-6.518,1.75-11.622,5.25-15.31s8.019-5.532,13.555-5.532c3.625,0,6.894,0.867,9.805,2.599
		s5.13,4.148,6.657,7.247c1.527,3.099,2.291,6.613,2.291,10.542c0,3.981-0.804,7.545-2.411,10.688s-3.885,5.522-6.832,7.14
		c-2.947,1.616-6.126,2.424-9.537,2.424c-3.697,0-7.001-0.893-9.912-2.678c-2.912-1.787-5.117-4.225-6.617-7.313
		C31.993,128.566,31.243,125.299,31.243,121.852z M36.6,121.932c0,4.733,1.272,8.463,3.818,11.187
		c2.545,2.724,5.737,4.085,9.577,4.085c3.911,0,7.13-1.375,9.657-4.125c2.527-2.751,3.791-6.653,3.791-11.708
		c0-3.196-0.541-5.987-1.621-8.371c-1.08-2.384-2.661-4.232-4.742-5.545s-4.416-1.969-7.005-1.969c-3.679,0-6.845,1.264-9.497,3.791
		C37.926,111.802,36.6,116.021,36.6,121.932z"/>
	<path d="M71.73,128.361l4.902-0.428c0.232,1.965,0.772,3.575,1.621,4.834c0.848,1.26,2.166,2.277,3.951,3.055
		c1.786,0.777,3.795,1.166,6.028,1.166c1.982,0,3.732-0.295,5.25-0.885s2.648-1.396,3.389-2.425
		c0.741-1.026,1.112-2.146,1.112-3.362c0-1.231-0.358-2.308-1.072-3.229c-0.714-0.919-1.893-1.691-3.536-2.316
		c-1.054-0.41-3.385-1.049-6.992-1.916c-3.607-0.865-6.135-1.683-7.581-2.45c-1.875-0.982-3.273-2.201-4.193-3.657
		c-0.92-1.455-1.379-3.085-1.379-4.889c0-1.982,0.563-3.835,1.688-5.559c1.125-1.723,2.768-3.031,4.929-3.925
		c2.161-0.893,4.563-1.339,7.207-1.339c2.911,0,5.479,0.469,7.702,1.407c2.224,0.938,3.934,2.317,5.13,4.139
		c1.196,1.822,1.839,3.885,1.929,6.188l-4.983,0.375c-0.268-2.482-1.174-4.357-2.719-5.626c-1.545-1.268-3.827-1.902-6.845-1.902
		c-3.144,0-5.434,0.576-6.872,1.728c-1.438,1.152-2.156,2.541-2.156,4.166c0,1.411,0.509,2.572,1.527,3.483
		c1,0.911,3.612,1.844,7.836,2.799c4.223,0.956,7.121,1.791,8.693,2.505c2.286,1.054,3.974,2.388,5.063,4.004
		c1.089,1.617,1.634,3.479,1.634,5.586c0,2.091-0.599,4.06-1.795,5.907c-1.197,1.85-2.916,3.286-5.157,4.312
		c-2.242,1.027-4.764,1.541-7.568,1.541c-3.554,0-6.533-0.519-8.935-1.554c-2.402-1.036-4.286-2.594-5.652-4.675
		C72.521,133.341,71.801,130.987,71.73,128.361z"/>
	<path d="M110.2,140.979v-39.272h28.396v4.634h-23.199v12.028h21.726v4.608h-21.726v13.366h24.11v4.636H110.2L110.2,140.979z
		 M120.916,99.295l3.563-7.501h6.322l-5.894,7.501H120.916z"/>
	<path d="M146.793,140.979v-39.272h28.396v4.634H151.99v12.028h21.726v4.608H151.99v13.366h24.11v4.636H146.793L146.793,140.979z"/>
	<path d="M198.31,140.979v-39.272h5.197v34.638h19.342v4.635H198.31z"/>
	<path d="M224.723,140.979l15.083-39.272h5.598l16.074,39.272h-5.92l-4.582-11.895h-16.422l-4.313,11.895H224.723z M236.057,124.854
		h13.312l-4.098-10.876c-1.25-3.304-2.181-6.019-2.787-8.144c-0.5,2.518-1.205,5.019-2.115,7.501L236.057,124.854z"/>
	<path d="M290.4,101.707h5.197v22.689c0,3.947-0.445,7.082-1.34,9.403c-0.893,2.322-2.505,4.211-4.835,5.666
		c-2.331,1.456-5.39,2.185-9.176,2.185c-3.679,0-6.688-0.635-9.027-1.902c-2.34-1.268-4.01-3.104-5.01-5.505
		c-1.001-2.402-1.5-5.685-1.5-9.847v-22.689h5.196v22.664c0,3.411,0.316,5.925,0.951,7.541c0.634,1.617,1.724,2.861,3.269,3.736
		s3.435,1.313,5.666,1.313c3.821,0,6.545-0.866,8.171-2.599c1.625-1.731,2.438-5.063,2.438-9.992V101.707z"/>
	<path d="M304.332,140.979v-39.272h17.412c3.501,0,6.162,0.353,7.982,1.058c1.822,0.706,3.277,1.952,4.367,3.737
		c1.089,1.786,1.635,3.759,1.635,5.92c0,2.786-0.902,5.135-2.707,7.045c-1.804,1.911-4.59,3.125-8.356,3.644
		c1.375,0.662,2.419,1.313,3.134,1.955c1.519,1.395,2.956,3.136,4.313,5.226l6.831,10.688h-6.537l-5.196-8.172
		c-1.519-2.356-2.769-4.16-3.751-5.41s-1.861-2.125-2.639-2.625c-0.776-0.5-1.567-0.85-2.371-1.045
		c-0.589-0.125-1.555-0.188-2.894-0.188h-6.027v17.438h-5.196V140.979z M309.528,119.039H320.7c2.375,0,4.231-0.245,5.571-0.737
		c1.34-0.491,2.357-1.276,3.055-2.357c0.695-1.08,1.045-2.254,1.045-3.522c0-1.857-0.675-3.384-2.022-4.581
		c-1.35-1.196-3.479-1.795-6.39-1.795h-12.431V119.039L309.528,119.039z"/>
	<path d="M343.979,140.979v-39.272h28.396v4.634h-23.199v12.028h21.727v4.608h-21.727v13.366h24.11v4.636H343.979L343.979,140.979z"
		/>
	<path d="M380.413,140.979v-39.272h5.331l20.628,30.834v-30.834h4.983v39.272h-5.332l-20.627-30.86v30.86H380.413z"/>
	<path d="M429.08,140.979V106.34h-12.938v-4.634h31.13v4.634h-12.993v34.639H429.08z"/>
</g>
</svg>
