<?xml version="1.0" encoding="utf-8"?>
<!-- Generator: Adobe Illustrator 16.0.0, SVG Export Plug-In . SVG Version: 6.00 Build 0)  -->
<!DOCTYPE svg PUBLIC "-//W3C//DTD SVG 1.1//EN" "http://www.w3.org/Graphics/SVG/1.1/DTD/svg11.dtd">
<svg version="1.1" id="Calque_3" xmlns="http://www.w3.org/2000/svg" xmlns:xlink="http://www.w3.org/1999/xlink" x="0px" y="0px"
	 width="427.111px" height="123.512px" viewBox="10.1 56.92 427.111 123.512" enable-background="new 10.1 56.92 427.111 123.512"
	 xml:space="preserve">
<path d="M294.217,144.242c-4.205,0-7.785,0.064-11.359-0.049c-0.741-0.024-1.64-0.547-2.172-1.11
	c-10.271-10.906-20.494-21.856-30.736-32.789c-0.625-0.667-1.346-1.248-2.02-1.867c-0.195,0.064-0.393,0.129-0.591,0.193
	c0,23.813,0,47.623,0,71.504c-3.093,0-5.769,0-8.565,0c0-35.463,0-70.821,0-106.325c2.746,0,5.414,0,8.457,0
	c0,10.098,0,20.19,0,30.282c0.203,0.093,0.406,0.182,0.609,0.275c1.525-1.397,3.071-2.768,4.569-4.189
	c8.905-8.449,17.797-16.918,26.719-25.351c0.543-0.513,1.312-1.086,1.989-1.108c3.568-0.11,7.141-0.051,11.008,0.39
	c-11.42,10.553-22.842,21.105-34.432,31.812C269.794,118.609,281.812,131.225,294.217,144.242z"/>
<path d="M436.078,144.244c-3.055,0-5.764,0.098-8.456-0.066c-0.702-0.041-1.691-0.744-1.979-1.394
	c-2.054-4.677-4.007-9.399-5.892-14.147c-0.487-1.224-1.153-1.597-2.438-1.593c-10.526,0.051-21.057,0.058-31.584-0.004
	c-1.426-0.01-2.014,0.517-2.521,1.776c-1.882,4.668-3.934,9.271-5.833,13.933c-0.45,1.104-0.971,1.579-2.219,1.528
	c-2.553-0.108-5.112-0.033-7.896-0.033c0.209-0.645,0.33-1.17,0.545-1.656c9.836-22.383,19.699-44.757,29.489-67.163
	c0.631-1.445,1.366-1.885,2.892-1.867c6.007,0.07,5.992,0.022,8.332,5.536c8.836,20.828,17.682,41.653,26.518,62.479
	C435.369,142.369,435.662,143.18,436.078,144.244z M402.064,84.347c-5.021,11.849-9.843,23.239-14.729,34.774
	c9.584,0,18.884,0,28.451,0C411.227,107.561,406.736,96.185,402.064,84.347z"/>
<path d="M130.239,103.32c0-9.94,0-19.716,0-29.608c2.755,0,5.36,0,8.133,0c0,23.4,0,46.826,0,70.394c-2.632,0-5.289,0-8.11,0
	c0-10.858,0-21.653,0-32.61c-12.62,0-25.076,0-37.698,0c0,10.797,0,21.593,0,32.567c-2.814,0-5.471,0-8.284,0
	c0-23.363,0-46.792,0-70.343c2.625,0,5.229,0,8.069,0c0,9.775,0,19.604,0,29.6C105.033,103.32,117.485,103.32,130.239,103.32z"/>
<path d="M303.656,73.688c2.719,0,5.322,0,8.158,0c0,9.873,0,19.7,0,29.666c12.632,0,25.03,0,37.661,0c0-9.772,0-19.602,0-29.594
	c2.88,0,5.537,0,8.332,0c0,23.415,0,46.842,0,70.377c-2.674,0-5.275,0-8.125,0c0-10.849,0-21.693,0-32.672
	c-12.646,0-25.05,0-37.694,0c0,10.784,0,21.633,0,32.63c-2.896,0-5.551,0-8.332,0C303.656,120.688,303.656,97.313,303.656,73.688z"
	/>
<path d="M156.174,144.088c0-23.535,0-46.914,0-70.441c14.724,0,29.365,0,44.124,0c0,2.529,0,4.989,0,7.708
	c-11.862,0-23.732,0-35.735,0c0,7.453,0,14.65,0,22.048c11.035,0,22.041,0,33.265,0c0,2.685,0,5.18,0,7.84
	c-11.013,0-22.026,0-33.218,0c0,8.374,0,16.589,0,25.073c12.374,0,24.823,0,37.414,0c0,2.714,0,5.16,0,7.771
	C186.825,144.088,171.592,144.088,156.174,144.088z"/>
<path d="M66.513,128.3c2.102,1.769,4.151,3.49,6.312,5.308c-4.439,6.095-10.278,9.787-17.428,11.461
	c-25.459,5.959-47.677-13.514-45.092-39.532c1.5-15.12,8.756-26.315,23.291-31.56c11.379-4.107,22.585-3.126,32.724,4.179
	c1.234,0.889,2.28,2.046,3.375,3.12c0.457,0.448,0.812,0.999,1.334,1.657c-2.436,1.776-4.773,3.481-7.053,5.146
	c-0.253-0.068-0.446-0.06-0.514-0.146C54.732,76.69,36.668,76.865,26.446,88.9c-9.944,11.706-9.501,30.867,1.051,41.522
	c10.385,10.486,26.998,10.378,37.254-0.245C65.3,129.604,65.84,129.018,66.513,128.3z"/>
<path d="M223.518,144.146c-2.75,0-5.354,0-8.069,0c0-23.461,0-46.825,0-70.372c2.599,0,5.254,0,8.069,0
	C223.518,97.128,223.518,120.543,223.518,144.146z"/>
<path d="M229.324,56.92c3.199-0.014,5.523,2.309,5.484,5.484c-0.035,3.019-2.418,5.331-5.476,5.312
	c-3.082-0.018-5.313-2.283-5.323-5.403C224,59.228,226.26,56.935,229.324,56.92z"/>
<path d="M204.27,62.359c-0.024-3.126,2.218-5.422,5.313-5.438c3.136-0.016,5.414,2.209,5.457,5.33
	c0.047,3.073-2.266,5.435-5.35,5.468C206.577,67.751,204.298,65.498,204.27,62.359z"/>
<path fill="none" d="M402.064,84.347c4.672,11.838,9.161,23.214,13.725,34.774c-9.567,0-18.867,0-28.451,0
	C392.224,107.585,397.046,96.196,402.064,84.347z"/>
<g>
	<path d="M263.941,158.074h15.89v2.229h-13.408v7.567h11.995v2.229h-11.995v7.725h13.564v2.229h-16.046V158.074z"/>
	<path d="M284.979,158.074h2.324l13.848,17.615v-17.615h2.418v21.979h-1.979l-14.193-18.023v18.023h-2.418V158.074z"/>
	<path d="M315.596,160.366h-7.379v-2.292h17.238v2.292h-7.379v19.688h-2.48V160.366z"/>
	<path d="M330.134,158.074h9.452c1.36,0,2.569,0.193,3.627,0.581c1.057,0.388,1.932,0.926,2.622,1.616
		c0.544,0.545,0.962,1.184,1.256,1.916c0.293,0.732,0.439,1.539,0.439,2.418v0.062c0,0.922-0.146,1.743-0.439,2.465
		c-0.294,0.724-0.707,1.351-1.239,1.886c-0.534,0.532-1.168,0.973-1.9,1.317s-1.528,0.592-2.386,0.738l6.751,8.979h-3.047
		l-6.375-8.541h-0.062h-6.217v8.541h-2.481L330.134,158.074L330.134,158.074z M339.383,169.284c0.818,0,1.574-0.104,2.268-0.314
		c0.691-0.209,1.291-0.507,1.795-0.895c0.503-0.388,0.896-0.858,1.181-1.413c0.283-0.555,0.425-1.188,0.425-1.899V164.7
		c0-1.36-0.494-2.423-1.479-3.188s-2.371-1.146-4.155-1.146h-6.799v8.918L339.383,169.284L339.383,169.284z"/>
	<path d="M352.837,158.074h15.89v2.229h-13.407v7.567h11.995v2.229h-11.995v7.725h13.563v2.229h-16.046V158.074z"/>
	<path d="M373.875,158.074h8.229c1.233,0,2.358,0.162,3.375,0.486c1.016,0.324,1.885,0.784,2.605,1.381
		c0.723,0.598,1.277,1.324,1.664,2.184c0.388,0.857,0.581,1.832,0.581,2.92v0.062c0,1.192-0.23,2.234-0.69,3.125
		c-0.461,0.89-1.083,1.638-1.867,2.244c-0.785,0.607-1.701,1.062-2.748,1.366c-1.048,0.304-2.156,0.455-3.328,0.455h-5.338v7.756
		h-2.481L373.875,158.074L373.875,158.074z M381.803,170.068c0.903,0,1.728-0.114,2.473-0.346c0.744-0.23,1.386-0.562,1.921-0.992
		c0.534-0.431,0.943-0.939,1.228-1.528c0.284-0.588,0.426-1.249,0.426-1.984v-0.062c0-1.575-0.541-2.769-1.621-3.576
		c-1.082-0.809-2.515-1.213-4.299-1.213h-5.572v9.703h5.445V170.068z"/>
	<path d="M405.058,180.432c-1.676,0-3.197-0.304-4.568-0.91s-2.55-1.43-3.532-2.465c-0.984-1.037-1.743-2.24-2.277-3.611
		c-0.533-1.37-0.8-2.811-0.8-4.317v-0.062c0-1.508,0.271-2.952,0.816-4.334c0.544-1.381,1.308-2.59,2.292-3.627
		c0.982-1.035,2.166-1.862,3.548-2.479c1.382-0.618,2.91-0.927,4.585-0.927s3.197,0.304,4.568,0.91s2.549,1.429,3.532,2.466
		c0.983,1.036,1.742,2.239,2.276,3.61s0.801,2.811,0.801,4.317c0.021,0.021,0.021,0.042,0,0.062c0,1.508-0.271,2.951-0.816,4.334
		c-0.545,1.382-1.309,2.591-2.291,3.627c-0.984,1.035-2.168,1.863-3.55,2.479C408.26,180.122,406.73,180.432,405.058,180.432z
		 M405.12,178.141c1.256,0,2.412-0.236,3.47-0.707c1.057-0.472,1.963-1.115,2.716-1.932c0.755-0.816,1.346-1.77,1.774-2.857
		s0.644-2.262,0.644-3.518v-0.062c0-1.256-0.215-2.434-0.644-3.531c-0.43-1.1-1.031-2.059-1.807-2.874
		c-0.774-0.816-1.689-1.466-2.746-1.946c-1.059-0.48-2.215-0.723-3.471-0.723c-1.257,0-2.412,0.234-3.471,0.707
		c-1.057,0.471-1.962,1.113-2.716,1.931s-1.347,1.771-1.774,2.856c-0.429,1.09-0.644,2.262-0.644,3.519v0.062
		c0,1.257,0.215,2.435,0.644,3.533c0.43,1.1,1.031,2.057,1.807,2.872c0.774,0.816,1.689,1.466,2.748,1.947
		C402.707,177.898,403.864,178.141,405.12,178.141z M404.021,152.014h2.136l3.328,4.113h-2.072l-2.354-2.104l-2.354,2.104h-2.01
		L404.021,152.014z"/>
	<path d="M427.352,160.366h-7.379v-2.292h17.238v2.292h-7.379v19.688h-2.48V160.366z"/>
</g>
</svg>
